<?xml version="1.0" standalone="no"?>
<svg width="64" height="64" viewBox="0 0 288 384" version="1.1" xmlns="http://www.w3.org/2000/svg">
  <path d="M288 335v-15h-20l-24 -291c0 -16 -13 -29 -29 -29h-141c-16 0 -29 13 -29 29l-24 291h-21v15h80v20c0 16 13 29 29 29h70c16 0 29 -13 29 -29v-20h80zM95 355v-20h98v20c0 8 -6 14 -14 14h-70c-8 0 -14 -6 -14 -14zM230 30l23 290h-217l23 -290v0v-1c0 -8 7 -14 15 -14 h141c8 0 15 6 15 14v1v0zM137 47v241h14v-241h-14zM208 288l-11 -241h-14l10 241h15zM94 288l11 -241h-14l-11 241h14z" transform="matrix(1,0,0,-1,0,384)"/>
</svg>